<svg width="254" height="227" viewBox="0 0 254 227" fill="none" xmlns="http://www.w3.org/2000/svg">
<path d="M254 137.346C254 192.851 223.21 243.543 161 221.5C97.5 199 0 192.851 0 137.346C0 81.8413 79 68 140.5 61.5C211.469 61.5 246.5 80.5 254 137.346Z" fill="url(#paint0_linear_299_59)"/>
<path d="M113.5 6.5L130 4L146.5 6.5V11L132 13.5L117 11L113.5 6.5Z" fill="#20CE55"/>
<g clip-path="url(#clip0_299_59)">
<path d="M126.442 70.9613C119.73 89.8788 169.855 76.6183 169.812 90.2663C177.703 81.1402 182.475 69.2435 182.475 56.2331C182.475 40.6506 175.628 26.6639 164.778 17.1228H164.775C164.775 17.1228 131.324 18.1754 131.324 32.8212C131.324 47.467 175.872 35.8724 172.21 50.5182C168.549 65.164 133.155 52.0438 126.442 70.9613Z" fill="#20CE55"/>
<path d="M104.474 82.861C111.797 55.4002 83.1152 57.8411 83.7254 47.7721C84.3357 37.7032 105.084 48.0773 107.22 35.8724C109.356 23.6676 92.9553 20.0733 92.9553 20.0733L92.9523 20.0702C83.9085 29.4344 78.3431 42.1854 78.3431 56.2332C78.3431 72.075 85.4188 86.2631 96.5832 95.8134C100.22 92.4415 103.049 88.2007 104.474 82.861Z" fill="#20CE55"/>
<path d="M110.719 8.01796C103.973 10.7763 97.9349 14.9106 92.9523 20.0702L92.9553 20.0733C92.9553 20.0733 109.356 23.6676 107.22 35.8724C105.084 48.0773 84.3357 37.7032 83.7254 47.7721C83.1152 57.8411 111.797 55.4002 104.474 82.861C103.049 88.2006 100.22 92.4418 96.5832 95.8134C101.392 99.9295 106.963 103.185 113.054 105.336V105.333C131.401 92.4083 148.667 105.004 148.667 105.004V105.007C156.909 101.922 164.161 96.8051 169.812 90.2663C169.855 76.6183 119.73 89.8788 126.442 70.9613C133.155 52.0438 168.549 65.164 172.21 50.5182C175.872 35.8724 131.324 47.467 131.324 32.8212C131.324 18.1754 164.775 17.1228 164.775 17.1228C160.527 13.385 155.664 10.3277 150.358 8.1278V8.13085C150.358 8.13085 133.753 19.8383 110.723 8.02406L110.719 8.01796Z" fill="#1AA5E2"/>
<path d="M169.812 91.7919C169.811 91.7919 169.809 91.7919 169.808 91.7919C168.965 91.7892 168.284 91.1042 168.287 90.2614C168.302 85.4704 158.276 84.8748 148.581 84.2988C147.326 84.2243 146.066 84.1493 144.82 84.0653C143.979 84.0086 143.344 83.2812 143.4 82.4406C143.457 81.6 144.181 80.9656 145.025 81.0208C146.264 81.1044 147.515 81.1786 148.762 81.2527C154.313 81.5826 159.556 81.8941 163.647 82.9443C168.761 84.2576 171.349 86.7226 171.338 90.2706C171.335 91.1118 170.653 91.7919 169.812 91.7919Z" fill="#333333"/>
<path d="M140.354 83.6943C140.302 83.6943 140.25 83.6916 140.197 83.6864C139.241 83.5891 138.372 83.4859 137.54 83.3706C136.706 83.255 136.123 82.4845 136.239 81.65C136.354 80.8155 137.124 80.2327 137.959 80.3484C138.754 80.4585 139.587 80.5577 140.507 80.6511C141.345 80.7365 141.955 81.4849 141.87 82.3231C141.79 83.1088 141.127 83.6943 140.354 83.6943Z" fill="#333333"/>
<path d="M131.672 82.0561C131.509 82.0561 131.344 82.0299 131.181 81.9747C128.022 80.9019 125.997 79.3705 124.991 77.2929C124.066 75.385 124.071 73.0831 125.005 70.4512C128.895 59.4857 141.279 58.4059 152.206 57.4533C154.13 57.2855 155.948 57.1272 157.712 56.9194C158.548 56.8217 159.307 57.4195 159.405 58.2564C159.504 59.0934 158.905 59.8513 158.068 59.9498C156.258 60.1628 154.419 60.323 152.47 60.4929C141.971 61.4083 131.115 62.3548 127.88 71.4715C127.22 73.3312 127.173 74.8001 127.736 75.9623C128.368 77.267 129.816 78.2888 132.162 79.0855C132.96 79.3564 133.387 80.223 133.116 81.0206C132.901 81.6558 132.307 82.0561 131.672 82.0561Z" fill="#333333"/>
<path d="M167.203 57.7484C166.631 57.7484 166.083 57.425 165.822 56.873C165.463 56.1108 165.789 55.2018 166.552 54.8424C168.876 53.7464 170.204 52.255 170.73 50.1481C171.142 48.5029 170.719 47.6644 170.366 47.1769C168.265 44.2791 160.097 43.6957 152.89 43.1813C147.531 42.7987 141.989 42.4029 137.742 41.1532C132.471 39.6019 129.798 36.7988 129.798 32.8212C129.798 16.8805 163.3 15.6426 164.726 15.5978L164.774 15.5972C165.617 15.5972 166.301 16.2803 166.301 17.1228C166.301 17.9545 165.638 18.6307 164.81 18.6481C164.44 18.6612 156.341 18.9706 148.379 20.97C141.294 22.7492 132.849 26.2492 132.849 32.8212C132.849 38.6911 143.147 39.4265 153.107 40.1377C161.743 40.7544 169.901 41.3372 172.836 45.3861C173.936 46.9038 174.223 48.7549 173.69 50.888C172.945 53.8679 170.981 56.1267 167.852 57.6019C167.643 57.7014 167.421 57.7484 167.203 57.7484Z" fill="#333333"/>
<path d="M96.5835 97.339C96.1737 97.339 95.7649 97.1749 95.4643 96.8505C94.8916 96.2326 94.9282 95.2672 95.5461 94.6945C99.2408 91.2692 101.749 87.1556 103 82.4677C105.573 72.8183 103.927 66.3268 97.6627 61.4199C96.9994 60.9003 96.8828 59.9413 97.4025 59.2779C97.9221 58.6146 98.8811 58.4984 99.5444 59.0177C106.806 64.706 108.84 72.4073 105.948 83.254C104.546 88.5076 101.744 93.1094 97.6203 96.932C97.3268 97.2045 96.9545 97.339 96.5835 97.339Z" fill="#333333"/>
<path d="M93.4698 58.4233C93.2165 58.4233 92.9602 58.3601 92.7237 58.2274C92.0949 57.8741 91.4715 57.5342 90.8622 57.2016C86.2643 54.6929 81.9212 52.3236 82.2026 47.68C82.3725 44.8766 83.8408 42.9769 86.567 42.0334C88.6925 41.2978 91.3049 41.2136 94.0708 41.1242C100.754 40.9085 104.873 40.4297 105.717 35.6094C106.482 31.2361 104.604 27.5735 100.134 24.7239C96.5725 22.4538 92.6661 21.572 92.627 21.5632C91.805 21.3813 91.2851 20.5676 91.466 19.7453C91.647 18.923 92.4604 18.4027 93.2818 18.5831C93.46 18.6221 97.6902 19.5683 101.704 22.1066C107.284 25.6356 109.711 30.4868 108.722 36.1355C107.39 43.7473 100.06 43.9838 94.1694 44.1739C88.1103 44.3694 85.4353 44.7774 85.2483 47.8646C85.0921 50.4426 87.8351 52.0744 92.3237 54.5233C92.944 54.8616 93.5784 55.2079 94.2185 55.5674C94.953 55.9802 95.2141 56.9102 94.8013 57.6446C94.5212 58.1429 94.0034 58.4233 93.4698 58.4233Z" fill="#333333"/>
<path opacity="0.25" d="M99.7198 56.2332C99.7198 50.7864 100.561 45.5368 102.113 40.6024C103.48 41.0214 104.931 41.2481 106.436 41.2481C114.576 41.2481 121.175 34.6492 121.175 26.5092C121.175 22.8542 119.841 19.5125 117.638 16.9366C124.217 11.2156 132.242 7.11542 141.097 5.26883C137.646 4.54569 134.073 4.16734 130.409 4.16734C121.923 4.16734 113.912 6.19884 106.834 9.80018C106.112 9.69155 105.374 9.6345 104.622 9.6345C96.7702 9.6345 90.3548 15.7751 89.9102 23.5157C82.6779 32.4566 78.3434 43.8382 78.3434 56.2335C78.3434 84.988 101.655 108.299 130.409 108.299C134.074 108.299 137.647 107.921 141.098 107.198C117.469 102.27 99.7198 81.3232 99.7198 56.2332Z" fill="black"/>
<path d="M113.055 106.859C112.576 106.859 112.104 106.634 111.807 106.212C111.321 105.523 111.486 104.571 112.175 104.086C122.165 97.0485 131.852 97.3634 138.218 98.8668C139.039 99.0605 139.546 99.8822 139.353 100.702C139.159 101.522 138.336 102.03 137.517 101.836C129.142 99.8587 121.208 101.455 113.932 106.581C113.665 106.768 113.359 106.859 113.055 106.859Z" fill="#333333"/>
<path d="M148.666 106.529C148.355 106.529 148.041 106.434 147.77 106.237C147.726 106.206 145.444 104.571 141.765 103.153C140.979 102.85 140.587 101.967 140.89 101.18C141.193 100.394 142.076 100.003 142.863 100.306C146.96 101.885 149.462 103.694 149.567 103.771C150.247 104.267 150.396 105.222 149.9 105.902C149.601 106.312 149.137 106.529 148.666 106.529Z" fill="#333333"/>
<path d="M131.399 14.816C125.442 14.816 118.12 13.5336 110.026 9.38154L111.419 6.66689C120.6 11.3767 129.786 12.8489 138.723 11.0435C145.404 9.69338 149.441 6.91037 149.481 6.8823L151.236 9.37788C151.056 9.50481 146.742 12.5051 139.484 14.0023C137.212 14.471 134.489 14.816 131.399 14.816Z" fill="#333333"/>
<path d="M130.409 109.825C124.279 109.825 118.269 108.798 112.545 106.775C106.329 104.579 100.625 101.281 95.5912 96.9723C83.6604 86.7666 76.8175 71.9176 76.8175 56.2331C76.8175 42.2702 82.1577 29.0512 91.8547 19.0106C97.0726 13.6075 103.225 9.43403 110.142 6.60587C116.584 3.97542 123.402 2.64174 130.409 2.64174C137.524 2.64174 144.433 4.01356 150.943 6.71907C156.361 8.96567 161.355 12.0806 165.782 15.9777L163.767 18.2682C159.591 14.5933 154.883 11.6556 149.773 9.53716C143.635 6.98635 137.12 5.69295 130.409 5.69295C123.8 5.69295 117.37 6.95035 111.296 9.43037C104.774 12.0971 98.9714 16.0335 94.0495 21.1299C84.9047 30.5987 79.8684 43.0654 79.8684 56.2331C79.8684 71.0245 86.322 85.0283 97.5745 94.6539C102.322 98.7175 107.701 101.827 113.561 103.898C118.958 105.806 124.626 106.773 130.409 106.773C136.513 106.773 142.476 105.698 148.132 103.578C156.022 100.625 163.12 95.6767 168.658 89.2689C176.584 80.1012 180.949 68.369 180.949 56.2331C180.949 41.7063 174.687 27.8688 163.77 18.2685L165.785 15.977C177.361 26.1565 184 40.8294 184 56.2331C184 69.1016 179.371 81.5426 170.966 91.2641C165.095 98.0573 157.569 103.304 149.202 106.435C143.204 108.684 136.88 109.825 130.409 109.825Z" fill="#333333"/>
<path d="M90.2645 31.1791C98.4045 31.1791 105.003 24.5803 105.003 16.4402C105.003 8.30017 98.4045 1.70135 90.2645 1.70135C82.1244 1.70135 75.5256 8.30017 75.5256 16.4402C75.5256 24.5803 82.1244 31.1791 90.2645 31.1791Z" fill="#FCBC1D"/>
<path opacity="0.25" d="M75.5256 16.4393C75.5256 24.5799 82.1223 31.1797 90.2629 31.1797C91.5261 31.1797 92.7558 31.021 93.9244 30.722C87.5565 29.0927 82.8485 23.3167 82.8485 16.4393C82.8485 9.56188 87.5565 3.78899 93.9244 2.15965C92.7558 1.86063 91.5261 1.70197 90.2629 1.70197C82.1223 1.70197 75.5256 8.29868 75.5256 16.4393Z" fill="black"/>
<path opacity="0.47" d="M88.6074 21.3792C88.6074 23.2282 90.0536 24.7386 91.8752 24.8423C91.3565 24.2382 91.0483 23.454 91.0483 22.5997C91.0483 20.6835 92.6014 19.1305 94.5176 19.1305C94.5847 19.1305 94.6518 19.1335 94.7189 19.1366C94.0873 18.386 93.1384 17.91 92.0766 17.91C90.1604 17.91 88.6074 19.463 88.6074 21.3792Z" fill="black"/>
<path d="M92.076 26.3743C89.3223 26.3743 87.0818 24.1338 87.0818 21.3801C87.0818 18.6264 89.322 16.3859 92.076 16.3859C94.83 16.3859 97.0702 18.6264 97.0702 21.3801C97.0702 22.2225 96.387 22.9057 95.5446 22.9057C94.7021 22.9057 94.019 22.2225 94.019 21.3801C94.019 20.3088 93.1473 19.4371 92.076 19.4371C91.0047 19.4371 90.133 20.3088 90.133 21.3801C90.133 22.4514 91.0044 23.3231 92.076 23.3231C92.9184 23.3231 93.6016 24.0063 93.6016 24.8487C93.6016 25.6912 92.9184 26.3743 92.076 26.3743Z" fill="#333333"/>
<path d="M89.7564 15.1236C89.6557 15.1236 89.5581 15.1145 89.4574 15.0931C89.3598 15.0748 89.2652 15.0443 89.1737 15.0077C89.0821 14.968 88.9936 14.9222 88.9082 14.8673C88.8258 14.8124 88.7495 14.7483 88.6763 14.6781C88.3925 14.3944 88.2308 14.0008 88.2308 13.598C88.2308 13.5004 88.24 13.3997 88.2613 13.3021C88.2797 13.2044 88.3102 13.1068 88.3468 13.0152C88.3864 12.9237 88.4322 12.8352 88.4871 12.7528C88.5421 12.6674 88.6061 12.5911 88.6763 12.5209C88.7495 12.4508 88.8258 12.3867 88.9082 12.3287C88.9936 12.2738 89.0821 12.228 89.1737 12.1914C89.2652 12.1517 89.3598 12.1212 89.4574 12.1029C89.9548 12.0022 90.4796 12.1639 90.8366 12.5209C90.9067 12.5911 90.9678 12.6674 91.0257 12.7528C91.0807 12.8352 91.1264 12.9237 91.1661 13.0152C91.2027 13.1068 91.2332 13.2044 91.2515 13.3021C91.2729 13.3997 91.282 13.5004 91.282 13.598C91.282 14.0008 91.1203 14.3944 90.8366 14.6781C90.5498 14.9619 90.1592 15.1236 89.7564 15.1236Z" fill="#333333"/>
<path d="M88.9113 8.71608C88.5115 8.71608 88.1179 8.55436 87.8342 8.2706C87.764 8.20042 87.6999 8.12109 87.645 8.03871C87.5901 7.95633 87.5413 7.86784 87.5046 7.77631C87.465 7.68172 87.4375 7.58713 87.4162 7.48949C87.3979 7.39185 87.3857 7.29116 87.3857 7.19047C87.3857 7.09284 87.3979 6.99215 87.4162 6.89451C87.4375 6.79687 87.465 6.69923 87.5046 6.60769C87.5413 6.51616 87.5901 6.42767 87.645 6.34529C87.6999 6.25986 87.764 6.18358 87.8342 6.1134C87.9044 6.04322 87.9806 5.97915 88.0661 5.92422C88.1485 5.8693 88.2369 5.82048 88.3285 5.78387C88.42 5.7442 88.5176 5.71674 88.6153 5.69538C88.8106 5.65572 89.015 5.65572 89.2103 5.69538C89.3079 5.71674 89.4025 5.7442 89.4971 5.78387C89.5886 5.82048 89.6771 5.8693 89.7595 5.92422C89.8419 5.97915 89.9212 6.04322 89.9914 6.1134C90.0616 6.18358 90.1256 6.25986 90.1806 6.34529C90.2355 6.42767 90.2843 6.51616 90.3209 6.60769C90.3606 6.69923 90.388 6.79687 90.4094 6.89451C90.4277 6.99215 90.4369 7.09284 90.4369 7.19047C90.4369 7.59323 90.2751 7.98684 89.9914 8.2706C89.7076 8.55436 89.314 8.71608 88.9113 8.71608Z" fill="#333333"/>
<path d="M83.4191 13.2929C83.0194 13.2929 82.6258 13.1312 82.342 12.8474C82.0582 12.5637 81.8935 12.17 81.8935 11.7673C81.8935 11.3676 82.0582 10.974 82.342 10.6902C82.6258 10.4064 83.0194 10.2417 83.4191 10.2417C83.8218 10.2417 84.2154 10.4064 84.4992 10.6902C84.783 10.974 84.9447 11.3676 84.9447 11.7673C84.9447 12.17 84.783 12.5637 84.4992 12.8474C84.2154 13.1312 83.8218 13.2929 83.4191 13.2929Z" fill="#333333"/>
<path d="M154.738 18.7774C154.461 18.7774 154.181 18.7021 153.93 18.5446C152.129 17.4163 150.233 16.4106 148.294 15.5548C147.523 15.2145 147.174 14.3138 147.514 13.5431C147.854 12.7724 148.755 12.4233 149.526 12.7635C151.598 13.6783 153.625 14.7532 155.549 15.959C156.263 16.4063 156.48 17.3476 156.032 18.0619C155.743 18.5236 155.246 18.7774 154.738 18.7774Z" fill="white"/>
<path d="M161.786 91.3175C161.378 91.3175 160.972 91.1551 160.671 90.8342C160.096 90.2187 160.128 89.2533 160.743 88.6779C169.706 80.2925 174.847 68.4667 174.847 56.2332C174.847 43.9298 169.913 32.4777 160.954 23.9868C160.342 23.407 160.317 22.4416 160.896 21.8299C161.476 21.2181 162.442 21.1925 163.053 21.7719C172.626 30.8447 177.898 43.0831 177.898 56.2328C177.898 69.3079 172.405 81.9457 162.828 90.9056C162.534 91.1814 162.159 91.3175 161.786 91.3175Z" fill="white"/>
<path d="M155.369 96.3404C154.869 96.3404 154.38 96.0954 154.087 95.6453C153.629 94.9386 153.83 93.9937 154.537 93.5351C155.313 93.0307 156.086 92.494 156.832 91.9402C157.509 91.4383 158.464 91.5796 158.967 92.2563C159.469 92.9331 159.327 93.8884 158.651 94.3906C157.853 94.9823 157.028 95.5553 156.198 96.0941C155.941 96.2607 155.653 96.3404 155.369 96.3404Z" fill="white"/>
<path d="M97.6661 25.3671C97.2755 25.3671 96.8853 25.2182 96.5872 24.9201C95.9913 24.3242 95.9913 23.3585 96.5872 22.7626C98.6876 20.6622 99.6036 17.6592 99.0376 14.7291C98.8777 13.9019 99.419 13.1016 100.246 12.9417C101.072 12.7809 101.873 13.3228 102.033 14.1503C102.792 18.0763 101.562 22.1023 98.7447 24.9201C98.4469 25.2182 98.0563 25.3671 97.6661 25.3671Z" fill="white"/>
<path d="M97.6652 10.5651C97.5675 10.5651 97.4668 10.5529 97.3692 10.5346C97.2716 10.5163 97.1739 10.4858 97.0824 10.4461C96.9908 10.4095 96.9024 10.3607 96.82 10.3058C96.7345 10.2508 96.6583 10.1868 96.5881 10.1166C96.3043 9.83282 96.1396 9.44226 96.1396 9.0395C96.1396 8.93881 96.1487 8.83812 96.1701 8.74049C96.1884 8.64285 96.2189 8.54826 96.2586 8.45672C96.2952 8.36214 96.3409 8.27365 96.3989 8.19127C96.4538 8.10889 96.5179 8.02956 96.5881 7.95938C96.6583 7.8892 96.7345 7.82512 96.82 7.7702C96.9024 7.71528 96.9908 7.66951 97.0824 7.62985C97.1739 7.59323 97.2716 7.56272 97.3692 7.54441C97.5645 7.50475 97.7659 7.50475 97.9642 7.54441C98.0618 7.56272 98.1564 7.59323 98.2479 7.62985C98.3425 7.66951 98.431 7.71528 98.5134 7.7702C98.5958 7.82512 98.6751 7.8892 98.7453 7.95938C98.8155 8.02956 98.8795 8.10889 98.9345 8.19127C98.9894 8.27365 99.0352 8.36214 99.0748 8.45672C99.1114 8.54826 99.1419 8.64285 99.1603 8.74049C99.1816 8.83812 99.1908 8.93881 99.1908 9.0395C99.1908 9.44226 99.0291 9.83282 98.7453 10.1166C98.6751 10.1868 98.5958 10.2508 98.5134 10.3058C98.431 10.3607 98.3425 10.4095 98.2479 10.4461C98.1564 10.4858 98.0618 10.5163 97.9642 10.5346C97.8665 10.5529 97.7659 10.5651 97.6652 10.5651Z" fill="white"/>
<path d="M90.2645 32.7047C81.2964 32.7047 74 25.4086 74 16.4402C74 7.4718 81.2964 0.175751 90.2645 0.175751C99.2326 0.175751 106.529 7.4721 106.529 16.4402C106.529 25.4083 99.2329 32.7047 90.2645 32.7047ZM90.2645 3.22696C82.9788 3.22696 77.0512 9.15423 77.0512 16.4402C77.0512 23.7262 82.9788 29.6535 90.2645 29.6535C97.5501 29.6535 103.478 23.7262 103.478 16.4402C103.478 9.15423 97.5504 3.22696 90.2645 3.22696Z" fill="#333333"/>
</g>
<path d="M50.456 156.68C47.448 156.68 44.984 155.992 43.064 154.616C41.144 153.24 39.72 151.4 38.792 149.096C37.864 146.76 37.4 144.216 37.4 141.464C37.4 139.256 37.768 137.048 38.504 134.84C39.24 132.6 40.296 130.552 41.672 128.696C43.08 126.808 44.76 125.304 46.712 124.184C48.696 123.032 50.904 122.456 53.336 122.456C54.168 122.456 55.128 122.632 56.216 122.984C57.336 123.304 58.408 123.784 59.432 124.424C60.488 125.032 61.352 125.768 62.024 126.632C62.728 127.464 63.08 128.392 63.08 129.416C63.08 130.024 62.824 130.536 62.312 130.952C61.832 131.368 61.272 131.576 60.632 131.576C59.928 131.576 59.352 131.384 58.904 131C58.456 130.616 58.008 130.184 57.56 129.704C57.144 129.224 56.616 128.792 55.976 128.408C55.336 128.024 54.456 127.832 53.336 127.832C51.704 127.832 50.216 128.264 48.872 129.128C47.528 129.992 46.376 131.128 45.416 132.536C44.488 133.912 43.768 135.4 43.256 137C42.744 138.568 42.488 140.056 42.488 141.464C42.488 143.192 42.76 144.792 43.304 146.264C43.848 147.704 44.712 148.872 45.896 149.768C47.08 150.632 48.6 151.064 50.456 151.064C52.344 151.064 53.912 150.552 55.16 149.528C56.44 148.504 57.544 147.224 58.472 145.688C58.568 145.496 58.648 145.272 58.712 145.016C58.776 144.76 58.824 144.408 58.856 143.96C58.728 143.896 58.584 143.8 58.424 143.672H51.176C50.344 143.672 49.688 143.4 49.208 142.856C48.76 142.312 48.536 141.608 48.536 140.744C48.536 140.008 48.792 139.416 49.304 138.968C49.848 138.488 50.552 138.184 51.416 138.056H54.248C55.272 138.056 56.36 138.104 57.512 138.2C58.664 138.264 59.752 138.472 60.776 138.824C61.8 139.176 62.632 139.768 63.272 140.6C63.912 141.4 64.232 142.552 64.232 144.056C64.232 145.848 63.816 147.512 62.984 149.048C62.184 150.584 61.112 151.928 59.768 153.08C58.424 154.2 56.936 155.08 55.304 155.72C53.672 156.36 52.056 156.68 50.456 156.68ZM79.9321 154.52C77.8521 154.52 76.1721 154.184 74.8921 153.512C73.6441 152.808 72.7001 151.848 72.0601 150.632C71.4521 149.384 71.0521 147.944 70.8601 146.312C70.7001 144.68 70.6361 142.92 70.6681 141.032C70.1881 140.648 69.8201 140.28 69.5641 139.928C69.3401 139.576 69.2281 139.048 69.2281 138.344C69.2281 137.64 69.3721 137.144 69.6601 136.856C69.9801 136.536 70.3481 136.264 70.7641 136.04C71.1801 135.784 71.5321 135.432 71.8201 134.984C71.9161 134.888 72.0121 134.728 72.1081 134.504C72.2041 134.248 72.2681 134.024 72.3001 133.832C72.5561 133.16 72.7161 132.472 72.7801 131.768C72.8761 131.032 73.0201 130.312 73.2121 129.608V129.368C73.2121 129.336 73.0681 129.256 72.7801 129.128C72.1721 128.904 71.5481 128.632 70.9081 128.312C70.2681 127.992 69.9481 127.4 69.9481 126.536C69.9481 125.544 70.2201 124.84 70.7641 124.424C71.3081 124.008 71.9961 123.736 72.8281 123.608C74.8761 123.256 76.8281 122.984 78.6841 122.792C80.5721 122.568 82.5561 122.456 84.6361 122.456C85.2441 122.456 85.9161 122.488 86.6521 122.552C87.3881 122.584 88.0921 122.712 88.7641 122.936C89.4361 123.128 89.9801 123.448 90.3961 123.896C90.8441 124.312 91.0681 124.888 91.0681 125.624C91.0681 126.136 90.8921 126.632 90.5401 127.112C90.1881 127.592 89.7241 127.832 89.1481 127.832H81.5641C80.5721 127.832 79.7881 128.216 79.2121 128.984C78.6681 129.72 78.2841 130.648 78.0601 131.768C77.8361 132.856 77.6921 133.928 77.6281 134.984C78.7481 134.952 79.7081 134.904 80.5081 134.84C81.3081 134.776 82.0601 134.744 82.7641 134.744H84.6841C86.4121 135.288 87.2761 136.328 87.2761 137.864C87.2761 138.632 86.9401 139.208 86.2681 139.592C85.5961 139.944 84.7321 140.184 83.6761 140.312C82.6521 140.408 81.5641 140.472 80.4121 140.504C79.2601 140.504 78.2201 140.536 77.2921 140.6C76.6841 140.632 76.3001 140.904 76.1401 141.416C75.9801 141.928 75.9001 142.472 75.9001 143.048C75.9001 143.304 75.9001 143.576 75.9001 143.864C75.9321 144.12 75.9481 144.344 75.9481 144.536C75.9481 145.048 75.9801 145.624 76.0441 146.264C76.1081 146.872 76.2841 147.416 76.5721 147.896C76.8601 148.376 77.3401 148.712 78.0121 148.904H80.1721C81.6761 148.904 83.1641 148.712 84.6361 148.328C86.1401 147.944 87.6441 147.752 89.1481 147.752C89.9801 147.752 90.5881 147.912 90.9721 148.232C91.3561 148.552 91.5481 149.208 91.5481 150.2C91.5481 151.288 91.0681 152.136 90.1081 152.744C89.1481 153.32 88.0441 153.736 86.7961 153.992C85.6761 154.216 84.5401 154.36 83.3881 154.424C82.2361 154.488 81.0841 154.52 79.9321 154.52ZM110.087 155C108.071 155 106.247 154.568 104.615 153.704C102.983 152.84 101.575 151.688 100.391 150.248C99.2386 148.808 98.3426 147.192 97.7026 145.4C97.0946 143.576 96.7906 141.704 96.7906 139.784C96.7906 135.624 97.7666 132.2 99.7186 129.512C101.703 126.792 104.535 124.68 108.215 123.176C109.143 122.792 110.199 122.424 111.383 122.072C112.599 121.688 113.735 121.496 114.791 121.496C115.751 121.496 116.679 121.64 117.575 121.928C118.471 122.184 119.223 122.68 119.831 123.416C120.055 123.768 120.215 124.136 120.311 124.52C120.407 124.872 120.535 125.224 120.695 125.576H120.743C120.807 125.672 120.935 125.88 121.127 126.2C121.351 126.488 121.575 126.792 121.799 127.112C122.023 127.4 122.167 127.608 122.231 127.736C123.447 129.368 124.263 131.048 124.679 132.776C125.095 134.472 125.303 136.328 125.303 138.344C125.303 140.488 124.935 142.568 124.199 144.584C123.463 146.568 122.423 148.344 121.079 149.912C119.735 151.48 118.135 152.728 116.279 153.656C114.423 154.552 112.359 155 110.087 155ZM110.567 149.624C112.103 149.624 113.431 149.272 114.551 148.568C115.703 147.832 116.647 146.872 117.383 145.688C118.151 144.472 118.727 143.176 119.111 141.8C119.495 140.392 119.687 139.016 119.687 137.672C119.687 136.968 119.575 136.04 119.351 134.888C119.127 133.736 118.775 132.584 118.295 131.432C117.815 130.28 117.191 129.32 116.423 128.552C115.655 127.752 114.727 127.352 113.639 127.352C111.943 127.352 110.391 127.704 108.983 128.408C107.607 129.08 106.423 130.008 105.431 131.192C104.439 132.376 103.671 133.704 103.127 135.176C102.615 136.648 102.359 138.184 102.359 139.784C102.359 141.416 102.647 142.984 103.223 144.488C103.831 145.992 104.743 147.224 105.959 148.184C107.175 149.144 108.711 149.624 110.567 149.624ZM141.538 155.24C140.29 155.24 139.25 155.16 138.418 155C137.618 154.84 136.962 154.456 136.45 153.848C135.97 153.208 135.586 152.232 135.298 150.92C134.37 150.696 133.698 150.296 133.282 149.72C132.898 149.112 132.706 148.328 132.706 147.368V146.408C132.93 144.744 133.138 143.208 133.33 141.8C133.522 140.36 133.618 138.824 133.618 137.192C133.618 135.912 133.602 134.792 133.57 133.832C133.57 132.84 133.506 131.672 133.378 130.328C133.41 130.168 133.218 130.024 132.802 129.896C132.386 129.768 132.114 129.688 131.986 129.656C131.57 129.496 131.186 129.24 130.834 128.888C130.482 128.504 130.306 127.96 130.306 127.256C130.306 126.456 130.674 125.736 131.41 125.096C132.178 124.424 133.154 123.832 134.338 123.32C135.554 122.808 136.818 122.392 138.13 122.072C139.442 121.72 140.674 121.464 141.826 121.304C142.978 121.112 143.89 121.016 144.562 121.016C146.162 121.016 147.666 121.336 149.074 121.976C150.482 122.584 151.634 123.496 152.53 124.712C153.426 125.896 153.874 127.368 153.874 129.128V130.328C153.778 130.712 153.586 131.16 153.298 131.672C153.042 132.184 152.786 132.68 152.53 133.16C152.306 133.64 152.194 134.024 152.194 134.312C152.194 134.472 152.386 134.664 152.77 134.888C153.186 135.08 153.618 135.272 154.066 135.464C154.546 135.624 154.866 135.784 155.026 135.944C156.306 137.128 157.25 138.312 157.858 139.496C158.498 140.68 158.818 142.12 158.818 143.816V145.736C158.434 147.464 157.586 148.936 156.274 150.152C154.994 151.368 153.49 152.36 151.762 153.128C150.034 153.864 148.258 154.408 146.434 154.76C144.61 155.08 142.978 155.24 141.538 155.24ZM138.178 149.624H141.01C142.546 149.624 143.938 149.56 145.186 149.432C146.466 149.272 147.666 148.936 148.786 148.424C149.906 147.88 151.026 147.032 152.146 145.88C152.594 145.432 152.93 144.984 153.154 144.536C153.378 144.088 153.49 143.544 153.49 142.904C153.49 141.848 153.058 140.968 152.194 140.264C151.33 139.528 150.354 139.16 149.266 139.16H141.73C140.866 139.16 140.434 138.664 140.434 137.672C140.434 137.544 140.434 137.416 140.434 137.288C140.466 137.16 140.482 137.048 140.482 136.952C140.482 136.088 140.754 135.4 141.298 134.888C141.842 134.344 142.514 133.896 143.314 133.544C144.114 133.16 144.898 132.776 145.666 132.392C146.466 131.976 147.138 131.496 147.682 130.952C148.226 130.376 148.498 129.624 148.498 128.696C148.498 128.056 148.258 127.576 147.778 127.256C147.33 126.936 146.802 126.712 146.194 126.584C145.586 126.456 145.042 126.392 144.562 126.392C143.538 126.392 142.466 126.52 141.346 126.776C140.226 127.032 139.346 127.528 138.706 128.264V130.088C138.706 131.624 138.738 133.16 138.802 134.696C138.898 136.232 138.946 137.768 138.946 139.304V141.416C138.946 141.672 138.93 142.104 138.898 142.712C138.866 143.288 138.818 143.864 138.754 144.44C138.722 145.016 138.706 145.432 138.706 145.688C138.706 146.328 138.594 146.968 138.37 147.608C138.178 148.216 138.05 148.84 137.986 149.48L138.178 149.624ZM171.412 152.6C169.94 152.6 168.724 152.2 167.764 151.4C166.836 150.6 166.116 149.56 165.604 148.28C165.092 146.968 164.724 145.576 164.5 144.104C164.276 142.6 164.132 141.16 164.068 139.784C164.036 138.376 164.02 137.176 164.02 136.184V133.112C164.02 132.696 164.068 132.088 164.164 131.288C164.26 130.488 164.404 129.608 164.596 128.648C164.82 127.688 165.092 126.776 165.412 125.912C165.732 125.016 166.084 124.296 166.468 123.752C166.884 123.176 167.348 122.888 167.86 122.888H170.26C170.708 122.888 170.996 123.016 171.124 123.272C171.284 123.496 171.364 123.784 171.364 124.136C171.364 124.264 171.348 124.392 171.316 124.52C171.316 124.648 171.3 124.776 171.268 124.904V125.624C170.82 127.672 170.388 129.72 169.972 131.768C169.556 133.784 169.348 135.88 169.348 138.056C169.348 138.536 169.364 139.272 169.396 140.264C169.428 141.224 169.524 142.232 169.684 143.288C169.876 144.312 170.164 145.192 170.548 145.928C170.932 146.632 171.46 146.984 172.132 146.984C172.484 146.984 172.916 146.824 173.428 146.504C173.972 146.152 174.404 145.848 174.724 145.592C176.42 144.344 177.796 142.904 178.852 141.272C179.94 139.608 180.868 137.848 181.636 135.992C182.404 134.136 183.156 132.28 183.892 130.424C184.628 128.536 185.492 126.744 186.484 125.048C186.74 124.856 186.948 124.728 187.108 124.664C187.3 124.6 187.588 124.568 187.972 124.568C189.06 124.568 189.764 124.92 190.084 125.624C190.436 126.328 190.612 127.176 190.612 128.168C190.612 129.608 190.58 131.032 190.516 132.44C190.452 133.848 190.42 135.256 190.42 136.664V140.936C190.42 141.064 190.452 141.464 190.516 142.136C190.612 142.776 190.724 143.512 190.852 144.344C191.012 145.176 191.124 145.928 191.188 146.6C191.284 147.24 191.332 147.64 191.332 147.8V148.28C191.332 149.016 191.076 149.64 190.564 150.152C190.052 150.664 189.428 150.92 188.692 150.92C187.604 150.92 186.836 150.536 186.388 149.768C185.972 148.968 185.684 148.072 185.524 147.08C185.46 146.728 185.364 146.024 185.236 144.968C185.108 143.912 185.012 142.744 184.948 141.464L184.468 141.944C183.668 143.096 182.836 144.296 181.972 145.544C181.14 146.792 180.212 147.96 179.188 149.048C178.196 150.104 177.06 150.968 175.78 151.64C174.5 152.28 173.044 152.6 171.412 152.6ZM209.21 155.72C208.474 155.72 207.626 155.688 206.666 155.624C205.738 155.592 204.874 155.4 204.074 155.048C203.274 154.696 202.682 154.104 202.298 153.272V151.352C202.298 150.648 202.298 150.024 202.298 149.48C202.33 148.936 202.41 148.312 202.538 147.608V134.312C202.538 134.216 202.49 133.912 202.394 133.4C202.33 132.856 202.298 132.472 202.298 132.248C202.298 131.8 202.218 131.352 202.058 130.904C201.93 130.456 201.866 130.024 201.866 129.608C201.866 129.512 201.834 129.368 201.77 129.176C201.738 128.952 201.61 128.744 201.386 128.552C200.97 128.712 200.618 128.84 200.33 128.936C200.042 129 199.69 129.032 199.274 129.032C198.698 129.032 198.106 128.776 197.498 128.264C196.922 127.72 196.634 127.144 196.634 126.536C196.634 125.48 196.97 124.648 197.642 124.04C198.314 123.4 199.146 122.92 200.138 122.6C201.162 122.248 202.186 121.992 203.21 121.832C204.266 121.672 205.178 121.56 205.946 121.496C206.362 121.496 206.922 121.48 207.626 121.448C208.33 121.384 208.986 121.336 209.594 121.304C210.234 121.272 210.586 121.256 210.65 121.256C212.858 121.32 215.018 121.72 217.13 122.456C219.242 123.16 221.146 124.184 222.842 125.528C224.57 126.84 225.93 128.44 226.922 130.328C227.946 132.216 228.458 134.344 228.458 136.712C228.458 139.208 227.914 141.592 226.826 143.864C225.77 146.136 224.314 148.168 222.458 149.96C220.634 151.752 218.57 153.16 216.266 154.184C213.994 155.208 211.642 155.72 209.21 155.72ZM208.97 149.864C210.634 149.864 212.298 149.48 213.962 148.712C215.658 147.944 217.21 146.92 218.618 145.64C220.026 144.328 221.162 142.856 222.026 141.224C222.89 139.592 223.322 137.928 223.322 136.232C223.322 134.6 222.874 133.192 221.978 132.008C221.082 130.824 219.93 129.864 218.522 129.128C217.146 128.36 215.674 127.8 214.106 127.448C212.538 127.064 211.066 126.872 209.69 126.872C209.53 126.872 209.338 126.872 209.114 126.872C208.922 126.84 208.698 126.824 208.442 126.824C208.154 126.824 207.882 126.856 207.626 126.92C207.37 126.984 207.162 127.112 207.002 127.304C207.482 129.64 207.786 131.88 207.914 134.024C208.074 136.168 208.154 138.408 208.154 140.744C208.154 142.024 208.106 143.336 208.01 144.68C207.946 145.992 207.914 147.352 207.914 148.76V149.624C208.202 149.784 208.554 149.864 208.97 149.864Z" fill="white"/>
<defs>
<linearGradient id="paint0_linear_299_59" x1="128.5" y1="53.5" x2="128.5" y2="221.5" gradientUnits="userSpaceOnUse">
<stop stop-color="#1775C1"/>
<stop offset="1" stop-color="#18578A"/>
</linearGradient>
<clipPath id="clip0_299_59">
<rect width="110" height="110" fill="white" transform="translate(74)"/>
</clipPath>
</defs>
</svg>
